<svg t="1683187301298" class="icon" viewBox="0 0 1024 1024" version="1.1" xmlns="http://www.w3.org/2000/svg" p-id="12518" xmlns:xlink="http://www.w3.org/1999/xlink" width="32" height="32"><path d="M318.57 223.95l322.99 322.99c21.87 21.87 57.33 21.87 79.2 0 21.87-21.87 21.87-57.33 0-79.2l-323-322.99c-21.87-21.87-57.33-21.87-79.2 0-21.86 21.87-21.86 57.33 0.01 79.2z" fill="#666666" p-id="12519"></path><path d="M729.75 555.95L406.76 878.93c-21.87 21.87-57.33 21.87-79.2 0-21.87-21.87-21.87-57.33 0-79.2l322.99-322.99c21.87-21.87 57.33-21.87 79.2 0 21.87 21.88 21.87 57.34 0 79.21z" fill="#666666" p-id="12520"></path></svg>