<svg xmlns="http://www.w3.org/2000/svg" width="20" height="20" viewBox="0 0 20 20" fill="none">
    <path d="M16.0684 8.06787L14.2158 9.92002L16.1479 11.8517L18.0005 9.99949L16.0684 8.06787Z" fill="#F0B90A"/>
    <path d="M10.002 14.1358L7.08589 11.2205L5.15332 13.1525L10.002 18L14.8508 13.1525L12.9182 11.2205L10.002 14.1358Z" fill="#F0B90A"/>
    <path d="M3.93135 8.06787L1.99927 9.99949L3.85186 11.8517L5.78394 9.92002L3.93135 8.06787Z" fill="#F0B90A"/>
    <path d="M9.99952 8.30225L8.38232 9.91907L9.99952 11.5358L11.6167 9.91907L9.99952 8.30225Z" fill="#F0B90A"/>
    <path d="M12.9136 8.6219L14.7684 6.76759L9.99752 2L5.22876 6.76759L7.08134 8.6219L9.99752 5.70645L12.9136 8.6219Z" fill="#F0B90A"/>
</svg>