<svg width="18px" height="18px" viewBox="0 0 18 18" version="1.1" xmlns="http://www.w3.org/2000/svg" xmlns:xlink="http://www.w3.org/1999/xlink">
    <title>icon/file</title>
    <g id="Trend-Crypto" stroke="none" stroke-width="1" fill="none" fill-rule="evenodd">
        <g id="Portfolio-Asset-overview备份-5" transform="translate(-25.000000, -721.000000)">
            <g id="编组-16" transform="translate(0.000000, 64.000000)">
                <g id="编组-3备份-4" transform="translate(0.000000, 642.000000)">
                    <g id="icon/白皮书" transform="translate(24.000000, 14.000000)">
                        <polygon id="路径" points="0 0 20 0 20 20 0 20"></polygon>
                        <path d="M2.5,15.4166667 L2.5,4.16666667 C2.5,2.78595479 3.61928813,1.66666667 5,1.66666667 L16.6666667,1.66666667 C17.126904,1.66666667 17.5,2.03976271 17.5,2.5 L17.5,17.5 C17.5,17.9602373 17.126904,18.3333333 16.6666667,18.3333333 L5.41666667,18.3333333 C3.80583615,18.3333333 2.5,17.0274972 2.5,15.4166667 Z M15.8333333,16.6666667 L15.8333333,14.1666667 L5.41666667,14.1666667 C4.72631073,14.1666667 4.16666667,14.7263107 4.16666667,15.4166667 C4.16666667,16.1070226 4.72631073,16.6666667 5.41666667,16.6666667 L15.8333333,16.6666667 Z M4.16666667,12.7808333 C4.55724195,12.595365 4.98429272,12.4994209 5.41666667,12.5 L15.8333333,12.5 L15.8333333,3.33333333 L5,3.33333333 C4.53976271,3.33333333 4.16666667,3.70642938 4.16666667,4.16666667 L4.16666667,12.7808333 Z" id="形状" fill="#000000" fill-rule="nonzero"></path>
                    </g>
                </g>
            </g>
        </g>
    </g>
</svg>