<svg width="18" height="18" viewBox="0 0 18 18" fill="none" xmlns="http://www.w3.org/2000/svg">
<path d="M3.52498 14.475C3.38748 14.3375 3.31873 14.1625 3.31873 13.95C3.31873 13.7375 3.38748 13.5625 3.52498 13.425L11.7 5.25H7.49998C7.28748 5.25 7.10948 5.17825 6.96598 5.03475C6.82198 4.89075 6.74998 4.7125 6.74998 4.5C6.74998 4.2875 6.82198 4.10925 6.96598 3.96525C7.10948 3.82175 7.28748 3.75 7.49998 3.75H13.5C13.7125 3.75 13.8905 3.82175 14.034 3.96525C14.178 4.10925 14.25 4.2875 14.25 4.5V10.5C14.25 10.7125 14.178 10.8905 14.034 11.034C13.8905 11.178 13.7125 11.25 13.5 11.25C13.2875 11.25 13.1095 11.178 12.966 11.034C12.822 10.8905 12.75 10.7125 12.75 10.5V6.3L4.55623 14.4938C4.41873 14.6313 4.24998 14.7 4.04998 14.7C3.84998 14.7 3.67498 14.625 3.52498 14.475Z" fill="#FFFFFF"/>
</svg>
