<svg t="1686819845795" class="icon" viewBox="0 0 1024 1024" version="1.1" xmlns="http://www.w3.org/2000/svg" p-id="3328" xmlns:xlink="http://www.w3.org/1999/xlink" width="200" height="200"><path d="M359.850667 726.016c22.058667-23.466667 105.045333-93.141333 106.112-94.037333a46.293333 46.293333 0 0 1 60.074666 0c1.066667 0.896 84.053333 70.570667 106.112 94.037333l0.725334 0.768a24.533333 24.533333 0 0 1-18.133334 41.216H377.258667a24.533333 24.533333 0 0 1-18.133334-41.216l0.725334-0.768z m249.386666-229.248a29.013333 29.013333 0 0 0-10.325333 21.76 29.013333 29.013333 0 0 0 10.325333 21.76c7.168 6.186667 15.402667 13.056 24.149334 20.352 28.288 23.552 63.488 52.864 91.562666 84.394667a28.757333 28.757333 0 0 1-2.432 40.704 29.098667 29.098667 0 0 1-40.96-2.432c-25.173333-28.330667-57.173333-54.954667-85.376-78.421334-8.96-7.466667-17.408-14.506667-25.002666-21.077333-19.2-16.64-30.250667-40.448-30.250667-65.28 0-24.874667 11.008-48.64 30.293333-65.28 7.253333-6.314667 15.36-13.098667 23.893334-20.224 46.933333-39.296 125.568-105.045333 125.568-152.448V235.861333a28.970667 28.970667 0 0 0-29.013334-28.842666H300.288a28.970667 28.970667 0 0 0-29.013333 28.842666v44.714667c0 47.402667 78.634667 113.152 125.610666 152.448 8.533333 7.125333 16.64 13.909333 23.893334 20.181333 19.242667 16.64 30.293333 40.448 30.293333 65.28 0 24.874667-11.050667 48.682667-30.293333 65.322667-7.253333 6.314667-15.36 13.056-23.893334 20.224-46.933333 39.253333-125.568 105.002667-125.568 152.448v44.714667c0 15.872 13.013333 28.842667 29.013334 28.842666h391.338666c16 0 29.013333-12.970667 29.013334-28.842666 0-15.957333 12.970667-28.842667 29.013333-28.842667 15.957333 0 28.970667 12.885333 28.970667 28.842667a86.869333 86.869333 0 0 1-86.997334 86.528H300.288A86.869333 86.869333 0 0 1 213.333333 801.194667V756.48c0-74.325333 84.48-144.981333 146.218667-196.608 8.362667-6.997333 16.298667-13.610667 23.210667-19.584a29.013333 29.013333 0 0 0 10.325333-21.76 29.013333 29.013333 0 0 0-10.325333-21.76c-6.912-5.973333-14.848-12.629333-23.210667-19.626667C297.856 425.514667 213.333333 354.858667 213.333333 280.576V235.861333C213.333333 188.16 252.330667 149.333333 300.288 149.333333h391.381333c47.957333 0 86.997333 38.826667 86.997334 86.528v44.714667c0 74.282667-84.522667 144.981333-146.261334 196.565333-8.362667 6.997333-16.256 13.653333-23.168 19.626667z m-81.92-80.298667c-17.194667 14.933333-42.538667 14.933333-59.733333 0-0.554667-0.426667-20.778667-17.749333-43.818667-38.016-18.048-15.914667-6.954667-45.952 16.981334-45.952h113.365333c23.936 0 35.072 30.037333 17.024 45.952-23.04 20.266667-43.306667 37.546667-43.818667 37.973334z" p-id="3329"></path></svg>